:SAMPLES-PER-SECOND 24
:FULLY-SPECIFIED
:DEGREES
358
root  -0.318543 38.1022 55.736 -174.25 -63.4425 174.981
RightUpLeg  -26.1244 -25.2661 -16.9592
RightLeg  43.4847 14.2059 13.7561
RightFoot  -0.392821 -1.35871 14.0838
RightToes  -1.74623e-010 0 -2.59999e-017
Spine  8.25582 2.53232 -3.17018
Spine1  7.56287 1.98046 0.70597
HEad  -25.4951 -37.7611 18.6692
LeftShoulder1  1.60659 -3.41396 -16.5083
LeftArm  15.6721 23.1452 -46.962
LeftForeArm  147.103 -74.0526 -142.547
LeftHand  -0.0227869 5.69054 2.22063
RightShoulder  2.28275 4.37739 22.778
RightArm  -1.54447 -11.3038 32.3394
RightForeArm  106.014 77.7338 119.545
RightHand  -0.44402 -8.91624 12.3094
LeftUpLeg  -6.31685 14.5589 13.0145
LeftLeg  26.6288 -8.88937 -4.46359
LeftFoot  -13.0552 -0.196185 -18.1801
LeftToes  -6.27559e-011 -2.10356e-011 8.24929e-012
359
root  0.13427 36.9863 55.8574 -170.91 -62.791 172.378
RightUpLeg  -31.8133 -30.8716 -18.0885
RightLeg  40.294 4.9307 4.25809
RightFoot  0.696841 -0.832221 7.87903
RightToes  -1.74623e-010 0 -2.59999e-017
Spine  10.0973 1.96568 -2.89561
Spine1  6.82436 1.8994 -0.831916
HEad  -30.653 -36.8981 19.6574
LeftShoulder1  1.91882 -3.81333 -19.7469
LeftArm  15.8581 14.534 -40.8926
LeftForeArm  112.559 -78.9817 -110.811
LeftHand  -0.0343553 5.15111 4.96684
RightShoulder  2.61593 4.88643 25.1125
RightArm  -7.8661 -2.67424 29.0432
RightForeArm  121.612 77.6487 124.592
RightHand  0.0161042 -4.69618 9.29846
LeftUpLeg  -11.039 18.8097 11.5292
LeftLeg  34.1773 -9.52802 -6.50342
LeftFoot  -19.4917 -0.965975 -14.9872
LeftToes  -6.27559e-011 -2.10356e-011 8.24929e-012
360
root  0.405104 36.2082 55.6264 -169.373 -60.1409 170.055
RightUpLeg  -37.1802 -38.746 -15.9088
RightLeg  35.7886 -3.08499 -2.64819
RightFoot  -1.16724 -0.292538 3.13556
RightToes  -1.74623e-010 0 -2.59999e-017
Spine  10.7475 1.50975 -1.28212
Spine1  8.90997 2.50071 -4.0829
HEad  -35.4664 -35.3763 21.9086
LeftShoulder1  2.22783 -4.11289 -22.9789
LeftArm  17.1237 -0.65471 -39.3287
LeftForeArm  41.297 -74.7414 -41.268
LeftHand  -0.00102091 5.60571 9.04816
RightShoulder  2.81142 5.17803 26.3739
RightArm  -15.646 3.87858 27.9594
RightForeArm  77.295 79.3348 72.1623
RightHand  -0.0205386 0.965757 0.504634
LeftUpLeg  -12.5767 23.0314 11.5092
LeftLeg  39.8521 -9.28845 -7.8421
LeftFoot  -21.5534 -1.22071 -15.0178
LeftToes  -6.27559e-011 -2.10356e-011 8.24929e-012
361
root  0.167806 35.9952 54.7974 -168.002 -56.9501 166.811
RightUpLeg  -45.4579 -52.6046 -7.09036
RightLeg  33.0084 -6.07459 -4.48183
RightFoot  -4.27853 -0.0968842 1.10749
RightToes  -1.74623e-010 0 -2.59999e-017
Spine  9.11387 0.527689 -1.98924
Spine1  10.9825 1.63471 -4.71402
HEad  -33.8525 -34.0779 21.0786
LeftShoulder1  2.2812 -4.29204 -22.9956
LeftArm  17.7856 -12.4305 -47.7372
LeftForeArm  34.982 -71.8607 -32.0679
LeftHand  -0.00644708 5.5277 10.5665
RightShoulder  2.81222 5.16279 26.4396
RightArm  -18.7246 2.86395 27.9494
RightForeArm  36.1316 69.7776 28.3182
RightHand  -0.689463 1.33029 -12.1113
LeftUpLeg  -7.84524 26.1152 12.2016
LeftLeg  38.4093 -11.2403 -8.99843
LeftFoot  -21.1395 -1.22353 -15.6194
LeftToes  -6.27559e-011 -2.10356e-011 8.24929e-012
362
root  -0.484039 36.3529 53.1323 -167.552 -53.0624 163.488
RightUpLeg  -57.4247 -65.6516 8.14031
RightLeg  31.6071 -7.90301 -5.44949
RightFoot  -5.34117 0.054789 -1.73546
RightToes  -1.74623e-010 0 -2.59999e-017
Spine  6.29484 -1.56972 -5.50648
Spine1  10.0255 -1.52878 -2.0307
HEad  -22.8278 -31.5174 12.4231
LeftShoulder1  2.08793 -4.01506 -21.4052
LeftArm  19.8361 -19.987 -61.0614
LeftForeArm  60.7699 -77.9558 -53.9779
LeftHand  -0.0528788 4.98428 10.3361
RightShoulder  2.9141 5.21576 27.4475
RightArm  -18.2753 -7.74029 26.7924
RightForeArm  30.7154 63.6729 20.0572
RightHand  -0.303499 -3.29265 -16.3077
LeftUpLeg  2.61125 26.5261 13.1949
LeftLeg  30.028 -11.2448 -6.59773
LeftFoot  -19.232 -1.23855 -19.4536
LeftToes  -6.27559e-011 -2.10356e-011 8.24929e-012
363
root  -1.12618 36.9437 50.6114 -171.135 -45.5147 162.956
RightUpLeg  -53.5997 -67.8322 8.83125
RightLeg  31.0724 -9.17105 -6.15215
RightFoot  -4.00329 0.458408 -7.4799
RightToes  -1.74623e-010 0 -2.59999e-017
Spine  4.14844 -4.6912 -8.8017
Spine1  6.87917 -5.45927 1.14338
HEad  -8.87108 -20.633 -0.396132
LeftShoulder1  1.55706 -2.9803 -17.309
LeftArm  21.4403 -26.8507 -69.8157
LeftForeArm  99.9421 -80.2594 -92.5632
LeftHand  -0.107222 4.39508 10.8645
RightShoulder  2.92326 5.20604 27.594
RightArm  -16.6039 -21.5548 23.8736
RightForeArm  32.486 64.3713 20.5832
RightHand  -0.0519125 -5.05767 -13.9027
LeftUpLeg  14.7907 23.7105 14.8798
LeftLeg  21.3523 -2.144 -0.547182
LeftFoot  -9.5529 0.517127 -26.9556
LeftToes  -6.27559e-011 -2.10356e-011 8.24929e-012
364
root  -1.29391 37.4316 47.7881 -176.966 -34.68 163.956
RightUpLeg  -35.0447 -55.7294 -5.79178
RightLeg  32.8782 -9.87704 -7.04724
RightFoot  -2.4039 0.86398 -11.2858
RightToes  -1.74623e-010 0 -2.59999e-017
Spine  3.12499 -8.1589 -12.1195
Spine1  4.64182 -9.80563 5.31034
HEad  -1.78814 -1.96341 -9.23487
LeftShoulder1  1.01434 -1.71082 -12.3677
LeftArm  14.3883 -29.9098 -65.6839
LeftForeArm  119.859 -79.5133 -112.601
LeftHand  -0.201041 3.45515 11.5587
RightShoulder  2.48053 4.58468 24.544
RightArm  -13.1407 -28.4235 19.9491
RightForeArm  30.4774 65.4995 22.1344
RightHand  -0.146133 -4.31186 -14.1086
LeftUpLeg  19.3944 17.4909 13.6851
LeftLeg  26.4303 8.24693 5.18563
LeftFoot  12.37 4.94002 -24.6037
LeftToes  -6.27559e-011 -2.10356e-011 8.24929e-012
365
root  -1.07034 37.5701 45.6664 176.861 -25.3617 165.236
RightUpLeg  -25.2084 -41.4566 -11.4145
RightLeg  36.298 -10.6587 -8.56086
RightFoot  -3.4163 0.657933 -9.75698
RightToes  -1.74623e-010 0 -2.59999e-017
Spine  3.60921 -11.7299 -12.7582
Spine1  6.89816 -13.5924 8.18428
HEad  -0.0307909 14.3424 -13.5656
LeftShoulder1  0.836659 -1.05161 -11.1831
LeftArm  1.50243 -26.5158 -52.1128
LeftForeArm  99.4339 -80.1776 -93.2562
LeftHand  -0.271062 3.3291 14.9707
RightShoulder  2.00198 3.77086 21.2323
RightArm  -12.5315 -27.4645 16.9658
RightForeArm  28.7102 65.3632 22.219
RightHand  -0.157098 -4.2942 -15.4609
LeftUpLeg  12.8771 13.7713 12.9026
LeftLeg  47.9452 0.713937 0.84586
LeftFoot  31.9597 6.99443 -18.0351
LeftToes  -6.27559e-011 -2.10356e-011 8.24929e-012
366
root  -0.815446 38.0344 43.9844 170.643 -16.1651 164.471
RightUpLeg  -16.3702 -33.2756 -14.5066
RightLeg  35.6664 -9.98339 -7.8762
RightFoot  -5.28587 0.390627 -8.03968
RightToes  -1.74623e-010 0 -2.59999e-017
Spine  4.54521 -12.92 -10.1336
Spine1  10.1319 -13.1583 4.37801
HEad  2.68643 24.4915 -15.6119
LeftShoulder1  0.99284 -1.32552 -13.5799
LeftArm  -8.33366 -17.5281 -38.502
LeftForeArm  59.3869 -78.1043 -56.6343
LeftHand  -0.407396 3.32293 22.6028
RightShoulder  1.85198 3.44565 20.3101
RightArm  -13.3384 -22.369 14.6028
RightForeArm  29.0172 65.381 22.1983
RightHand  -0.130969 -4.39179 -13.6739
LeftUpLeg  1.29402 15.5753 13.2213
LeftLeg  74.0736 -2.7579 -9.92476
LeftFoot  36.4281 7.53998 -17.4649
LeftToes  -6.27559e-011 -2.10356e-011 8.24929e-012
